<?xml version="1.0" encoding="utf-8"?>
<!-- Generator: Adobe Illustrator 16.0.0, SVG Export Plug-In . SVG Version: 6.00 Build 0)  -->
<!DOCTYPE svg PUBLIC "-//W3C//DTD SVG 1.1//EN" "http://www.w3.org/Graphics/SVG/1.1/DTD/svg11.dtd">
<svg version="1.1" id="Layer_1" xmlns="http://www.w3.org/2000/svg" xmlns:xlink="http://www.w3.org/1999/xlink" x="0px" y="0px"
	 width="1000px" height="1000px" viewBox="0 0 1000 1000" enable-background="new 0 0 1000 1000" xml:space="preserve">
<g>
	<path fill="#FFFFFF" d="M568.479,926.902c-52.5,0-102.031-9.109-148.594-27.297c-46.563-18.203-87.422-45.078-122.563-80.641
		s-62.875-79.797-83.188-132.719c-20.313-52.906-30.469-114.078-30.469-183.516c0-68.578,10.578-129.75,31.75-183.515
		c21.156-53.75,49.516-99.266,85.078-136.516s77.047-65.625,124.469-85.094c47.406-19.469,97.359-29.219,149.859-29.219
		c53.344,0,101.172,10.797,143.516,32.391c42.328,21.594,77.469,46.781,105.406,75.563l-99.063,119.375
		c-21.172-19.469-43.391-35.328-66.672-47.609s-49.75-18.422-79.375-18.422c-27.938,0-54.406,6.141-79.375,18.422
		c-24.984,12.281-46.578,29.844-64.781,52.703s-32.594,50.797-43.172,83.813c-10.594,33.031-15.875,70.281-15.875,111.75
		c0,85.531,18.203,151.781,54.609,198.765c36.406,47,85.078,70.484,146.047,70.484c33.875,0,64.141-7.406,90.813-22.219
		c26.656-14.813,50.156-33.234,70.484-55.25l99.063,116.828C767.011,886.262,677.698,926.902,568.479,926.902z"/>
</g>
</svg>
